# xmcd
#
# Track frame offsets:
# 150
# 13517
# 36217
#
# Disc length: 657 seconds
#
# Revision: 0
# Processed by: cddbd v1.5.1PL2 Copyright (c) Steve Scherf et al.
# Submitted via: plextools 2.32a
#
DISCID=19028f03
DTITLE=ベッキー - 伝説のスタフィー
DYEAR=2002
DGENRE=Pop
TTITLE0=ベッキー - 伝説のスタフィー
TTITLE1=ベッキー - BOYFRIEND'S ROOKIE
TTITLE2=ベッキー - 伝説のスタフィー (カラオケ)
EXTD=
EXTT0=
EXTT1=
EXTT2=
PLAYORDER=
